<?xml version="1.0" standalone="no"?>
<!DOCTYPE svg PUBLIC "-//W3C//DTD SVG 20010904//EN"
 "http://www.w3.org/TR/2001/REC-SVG-20010904/DTD/svg10.dtd">
<svg version="1.0" xmlns="http://www.w3.org/2000/svg"
 width="520.000000pt" height="520.000000pt" viewBox="0 0 520.000000 520.000000"
 preserveAspectRatio="xMidYMid meet">
<metadata>
Created by potrace 1.11, written by Peter Selinger 2001-2013
</metadata>
<g transform="translate(0.000000,520.000000) scale(0.100000,-0.100000)"
fill="#000000" stroke="none">
<path d="M0 2600 l0 -2600 2600 0 2600 0 0 2600 0 2600 -2600 0 -2600 0 0
-2600z m1396 609 c446 -62 705 -283 784 -669 19 -93 21 -127 17 -295 -4 -169
-8 -200 -31 -280 -45 -149 -97 -237 -200 -340 -76 -76 -106 -98 -186 -138
-193 -94 -335 -117 -740 -117 -287 0 -297 1 -340 22 -52 27 -104 91 -122 151
-10 32 -13 205 -13 752 0 668 1 713 19 764 23 67 82 126 145 145 57 18 549 22
667 5z m1604 -20 c62 -29 138 -99 175 -164 14 -23 111 -253 215 -510 105 -257
194 -474 199 -482 5 -10 70 138 196 449 103 255 200 488 216 519 38 76 115
154 186 187 50 23 71 27 153 27 85 0 101 -3 151 -29 71 -35 123 -85 157 -150
l27 -51 0 -762 0 -761 -30 -44 c-40 -57 -93 -83 -170 -82 -73 1 -128 28 -165
81 l-25 37 -5 635 -5 636 -67 -165 c-37 -91 -134 -331 -216 -535 -167 -415
-186 -457 -234 -502 -81 -78 -221 -86 -314 -17 -47 35 -85 118 -315 689 l-214
530 -5 -636 -5 -635 -25 -37 c-83 -121 -281 -108 -347 23 l-23 44 0 731 c0
493 4 743 11 770 25 93 103 174 208 216 68 28 197 22 271 -12z"/>
<path d="M1030 2296 l0 -598 163 4 c192 6 270 26 351 93 55 45 110 135 132
218 26 98 37 279 24 405 -37 355 -166 470 -536 475 l-134 2 0 -599z"/>
</g>
</svg>
